<?xml version="1.0" encoding="UTF-8" standalone="no"?>
<!DOCTYPE svg PUBLIC "-//W3C//DTD SVG 1.1//EN"
 "http://www.w3.org/Graphics/SVG/1.1/DTD/svg11.dtd">
<!-- Generated by graphviz version 14.0.0 (20250921.2048)
 -->
<!-- Title: dependency&#45;cruiser output Pages: 1 -->
<svg width="336pt" height="354pt"
 viewBox="0.00 0.00 336.00 354.00" xmlns="http://www.w3.org/2000/svg" xmlns:xlink="http://www.w3.org/1999/xlink">
<g id="graph0" class="graph" transform="scale(1 1) rotate(0) translate(4 350)">
<title>dependency&#45;cruiser output</title>
<polygon fill="white" stroke="none" points="-4,4 -4,-350 331.75,-350 331.75,4 -4,4"/>
<g id="clust1" class="cluster">
<title>cluster_src</title>
<path fill="#ffffff" stroke="black" stroke-width="2" d="M20,-8C20,-8 307.75,-8 307.75,-8 313.75,-8 319.75,-14 319.75,-20 319.75,-20 319.75,-326 319.75,-326 319.75,-332 313.75,-338 307.75,-338 307.75,-338 20,-338 20,-338 14,-338 8,-332 8,-326 8,-326 8,-20 8,-20 8,-14 14,-8 20,-8"/>
<text xml:space="preserve" text-anchor="middle" x="163.88" y="-325.45" font-family="Helvetica,sans-Serif" font-weight="bold" font-size="9.00">src</text>
</g>
<g id="clust2" class="cluster">
<title>cluster_src/cli</title>
<path fill="#ffffff" stroke="black" stroke-width="2" d="M28,-16C28,-16 299.75,-16 299.75,-16 305.75,-16 311.75,-22 311.75,-28 311.75,-28 311.75,-300 311.75,-300 311.75,-306 305.75,-312 299.75,-312 299.75,-312 28,-312 28,-312 22,-312 16,-306 16,-300 16,-300 16,-28 16,-28 16,-22 22,-16 28,-16"/>
<text xml:space="preserve" text-anchor="middle" x="163.88" y="-299.45" font-family="Helvetica,sans-Serif" font-weight="bold" font-size="9.00">cli</text>
</g>
<g id="clust3" class="cluster">
<title>cluster_src/cli/commands</title>
<path fill="#ffffff" stroke="black" stroke-width="2" d="M110,-24C110,-24 172,-24 172,-24 178,-24 184,-30 184,-36 184,-36 184,-184 184,-184 184,-190 178,-196 172,-196 172,-196 110,-196 110,-196 104,-196 98,-190 98,-184 98,-184 98,-36 98,-36 98,-30 104,-24 110,-24"/>
<text xml:space="preserve" text-anchor="middle" x="141" y="-183.45" font-family="Helvetica,sans-Serif" font-weight="bold" font-size="9.00">commands</text>
</g>
<g id="clust4" class="cluster">
<title>cluster_src/cli/commands/__tests__</title>
<path fill="#ffffff" stroke="black" stroke-width="2" d="M118,-32C118,-32 164,-32 164,-32 170,-32 176,-38 176,-44 176,-44 176,-72 176,-72 176,-78 170,-84 164,-84 164,-84 118,-84 118,-84 112,-84 106,-78 106,-72 106,-72 106,-44 106,-44 106,-38 112,-32 118,-32"/>
<text xml:space="preserve" text-anchor="middle" x="141" y="-71.45" font-family="Helvetica,sans-Serif" font-weight="bold" font-size="9.00">__tests__</text>
</g>
<g id="clust5" class="cluster">
<title>cluster_src/cli/templates</title>
<path fill="#ffffff" stroke="black" stroke-width="2" d="M208,-114C208,-114 291.75,-114 291.75,-114 297.75,-114 303.75,-120 303.75,-126 303.75,-126 303.75,-154 303.75,-154 303.75,-160 297.75,-166 291.75,-166 291.75,-166 208,-166 208,-166 202,-166 196,-160 196,-154 196,-154 196,-126 196,-126 196,-120 202,-114 208,-114"/>
<text xml:space="preserve" text-anchor="middle" x="249.88" y="-153.45" font-family="Helvetica,sans-Serif" font-weight="bold" font-size="9.00">templates</text>
</g>
<g id="clust6" class="cluster">
<title>cluster_src/cli/utils</title>
<path fill="#ffffff" stroke="black" stroke-width="2" d="M98,-204C98,-204 284.62,-204 284.62,-204 290.62,-204 296.62,-210 296.62,-216 296.62,-216 296.62,-274 296.62,-274 296.62,-280 290.62,-286 284.62,-286 284.62,-286 98,-286 98,-286 92,-286 86,-280 86,-274 86,-274 86,-216 86,-216 86,-210 92,-204 98,-204"/>
<text xml:space="preserve" text-anchor="middle" x="191.31" y="-273.45" font-family="Helvetica,sans-Serif" font-weight="bold" font-size="9.00">utils</text>
</g>
<!-- src/cli/commands/__tests__/init.test.ts -->
<g id="node1" class="node">
<title>src/cli/commands/__tests__/init.test.ts</title>
<g id="a_node1"><a xlink:href="src/cli/commands/__tests__/init.test.ts" xlink:title="init.test.ts">
<path fill="#ccffcc" stroke="black" d="M162.08,-57.88C162.08,-57.88 119.92,-57.88 119.92,-57.88 116.96,-57.88 114,-54.92 114,-51.96 114,-51.96 114,-46.04 114,-46.04 114,-43.08 116.96,-40.12 119.92,-40.12 119.92,-40.12 162.08,-40.12 162.08,-40.12 165.04,-40.12 168,-43.08 168,-46.04 168,-46.04 168,-51.96 168,-51.96 168,-54.92 165.04,-57.88 162.08,-57.88"/>
<text xml:space="preserve" text-anchor="start" x="122.25" y="-45.33" font-family="Helvetica,sans-Serif" font-size="9.00">init.test.ts</text>
</a>
</g>
</g>
<!-- src/cli/commands/check.ts -->
<g id="node2" class="node">
<title>src/cli/commands/check.ts</title>
<g id="a_node2"><a xlink:href="src/cli/commands/check.ts" xlink:title="check.ts">
<path fill="#ddfeff" stroke="black" d="M162.08,-109.88C162.08,-109.88 119.92,-109.88 119.92,-109.88 116.96,-109.88 114,-106.92 114,-103.96 114,-103.96 114,-98.04 114,-98.04 114,-95.08 116.96,-92.12 119.92,-92.12 119.92,-92.12 162.08,-92.12 162.08,-92.12 165.04,-92.12 168,-95.08 168,-98.04 168,-98.04 168,-103.96 168,-103.96 168,-106.92 165.04,-109.88 162.08,-109.88"/>
<text xml:space="preserve" text-anchor="start" x="124.5" y="-97.33" font-family="Helvetica,sans-Serif" font-size="9.00">check.ts</text>
</a>
</g>
</g>
<!-- src/cli/commands/init.test.ts -->
<g id="node3" class="node">
<title>src/cli/commands/init.test.ts</title>
<g id="a_node3"><a xlink:href="src/cli/commands/init.test.ts" xlink:title="init.test.ts">
<path fill="#ddfeff" stroke="black" d="M162.08,-169.88C162.08,-169.88 119.92,-169.88 119.92,-169.88 116.96,-169.88 114,-166.92 114,-163.96 114,-163.96 114,-158.04 114,-158.04 114,-155.08 116.96,-152.12 119.92,-152.12 119.92,-152.12 162.08,-152.12 162.08,-152.12 165.04,-152.12 168,-155.08 168,-158.04 168,-158.04 168,-163.96 168,-163.96 168,-166.92 165.04,-169.88 162.08,-169.88"/>
<text xml:space="preserve" text-anchor="start" x="122.25" y="-157.32" font-family="Helvetica,sans-Serif" font-size="9.00">init.test.ts</text>
</a>
</g>
</g>
<!-- src/cli/utils/mcp&#45;installer.ts -->
<g id="node4" class="node">
<title>src/cli/utils/mcp&#45;installer.ts</title>
<g id="a_node4"><a xlink:href="src/cli/utils/mcp-installer.ts" xlink:title="mcp&#45;installer.ts">
<path fill="#ddfeff" stroke="black" d="M282.71,-229.88C282.71,-229.88 217.04,-229.88 217.04,-229.88 214.08,-229.88 211.12,-226.92 211.12,-223.96 211.12,-223.96 211.12,-218.04 211.12,-218.04 211.12,-215.08 214.08,-212.12 217.04,-212.12 217.04,-212.12 282.71,-212.12 282.71,-212.12 285.67,-212.12 288.62,-215.08 288.62,-218.04 288.62,-218.04 288.62,-223.96 288.62,-223.96 288.62,-226.92 285.67,-229.88 282.71,-229.88"/>
<text xml:space="preserve" text-anchor="start" x="219.12" y="-217.32" font-family="Helvetica,sans-Serif" font-size="9.00">mcp&#45;installer.ts</text>
</a>
</g>
</g>
<!-- src/cli/commands/init.test.ts&#45;&gt;src/cli/utils/mcp&#45;installer.ts -->
<g id="edge1" class="edge">
<title>src/cli/commands/init.test.ts&#45;&gt;src/cli/utils/mcp&#45;installer.ts</title>
<path fill="none" stroke="#000000" stroke-width="2" stroke-opacity="0.200000" d="M158.7,-170.38C176.35,-180.28 204.35,-196.01 224.47,-207.3"/>
<polygon fill="#000000" fill-opacity="0.200000" stroke="#000000" stroke-width="2" stroke-opacity="0.200000" points="223.39,-209.1 229.65,-210.21 225.45,-205.44 223.39,-209.1"/>
</g>
<!-- src/cli/commands/init.ts -->
<g id="node5" class="node">
<title>src/cli/commands/init.ts</title>
<g id="a_node5"><a xlink:href="src/cli/commands/init.ts" xlink:title="init.ts">
<path fill="#ddfeff" stroke="black" d="M162.08,-139.88C162.08,-139.88 119.92,-139.88 119.92,-139.88 116.96,-139.88 114,-136.92 114,-133.96 114,-133.96 114,-128.04 114,-128.04 114,-125.08 116.96,-122.12 119.92,-122.12 119.92,-122.12 162.08,-122.12 162.08,-122.12 165.04,-122.12 168,-125.08 168,-128.04 168,-128.04 168,-133.96 168,-133.96 168,-136.92 165.04,-139.88 162.08,-139.88"/>
<text xml:space="preserve" text-anchor="start" x="130.5" y="-127.33" font-family="Helvetica,sans-Serif" font-size="9.00">init.ts</text>
</a>
</g>
</g>
<!-- src/cli/commands/init.ts&#45;&gt;src/cli/utils/mcp&#45;installer.ts -->
<g id="edge3" class="edge">
<title>src/cli/commands/init.ts&#45;&gt;src/cli/utils/mcp&#45;installer.ts</title>
<path fill="none" stroke="#000000" stroke-width="2" stroke-opacity="0.200000" d="M168.13,-135.06C175.31,-137.28 182.6,-140.71 188,-146 195.73,-153.58 190.21,-159.85 196,-169 205.04,-183.28 218.71,-196.59 229.88,-206.16"/>
<polygon fill="#000000" fill-opacity="0.200000" stroke="#000000" stroke-width="2" stroke-opacity="0.200000" points="228.5,-207.75 234.46,-209.96 231.18,-204.51 228.5,-207.75"/>
</g>
<!-- src/cli/templates/default&#45;gitignore.ts -->
<g id="node6" class="node">
<title>src/cli/templates/default&#45;gitignore.ts</title>
<g id="a_node6"><a xlink:href="src/cli/templates/default-gitignore.ts" xlink:title="default&#45;gitignore.ts">
<path fill="#ddfeff" stroke="black" d="M289.83,-139.88C289.83,-139.88 209.92,-139.88 209.92,-139.88 206.96,-139.88 204,-136.92 204,-133.96 204,-133.96 204,-128.04 204,-128.04 204,-125.08 206.96,-122.12 209.92,-122.12 209.92,-122.12 289.83,-122.12 289.83,-122.12 292.79,-122.12 295.75,-125.08 295.75,-128.04 295.75,-128.04 295.75,-133.96 295.75,-133.96 295.75,-136.92 292.79,-139.88 289.83,-139.88"/>
<text xml:space="preserve" text-anchor="start" x="212" y="-127.33" font-family="Helvetica,sans-Serif" font-size="9.00">default&#45;gitignore.ts</text>
</a>
</g>
</g>
<!-- src/cli/commands/init.ts&#45;&gt;src/cli/templates/default&#45;gitignore.ts -->
<g id="edge2" class="edge">
<title>src/cli/commands/init.ts&#45;&gt;src/cli/templates/default&#45;gitignore.ts</title>
<path fill="none" stroke="#000000" stroke-width="2" stroke-opacity="0.200000" d="M168.42,-131C176.48,-131 185.64,-131 194.84,-131"/>
<polygon fill="#000000" fill-opacity="0.200000" stroke="#000000" stroke-width="2" stroke-opacity="0.200000" points="194.6,-133.1 200.6,-131 194.6,-128.9 194.6,-133.1"/>
</g>
<!-- src/cli/main.ts -->
<g id="node7" class="node">
<title>src/cli/main.ts</title>
<g id="a_node7"><a xlink:href="src/cli/main.ts" xlink:title="main.ts">
<path fill="#ddfeff" stroke="black" d="M72.08,-139.88C72.08,-139.88 29.92,-139.88 29.92,-139.88 26.96,-139.88 24,-136.92 24,-133.96 24,-133.96 24,-128.04 24,-128.04 24,-125.08 26.96,-122.12 29.92,-122.12 29.92,-122.12 72.08,-122.12 72.08,-122.12 75.04,-122.12 78,-125.08 78,-128.04 78,-128.04 78,-133.96 78,-133.96 78,-136.92 75.04,-139.88 72.08,-139.88"/>
<text xml:space="preserve" text-anchor="start" x="36.38" y="-127.33" font-family="Helvetica,sans-Serif" font-size="9.00">main.ts</text>
</a>
</g>
</g>
<!-- src/cli/main.ts&#45;&gt;src/cli/commands/check.ts -->
<g id="edge4" class="edge">
<title>src/cli/main.ts&#45;&gt;src/cli/commands/check.ts</title>
<path fill="none" stroke="#000000" stroke-width="2" stroke-opacity="0.200000" d="M71.94,-121.63C76.51,-119.64 81.38,-117.65 86,-116 92.11,-113.82 98.7,-111.75 105.11,-109.89"/>
<polygon fill="#000000" fill-opacity="0.200000" stroke="#000000" stroke-width="2" stroke-opacity="0.200000" points="105.54,-111.95 110.75,-108.31 104.41,-107.91 105.54,-111.95"/>
</g>
<!-- src/cli/main.ts&#45;&gt;src/cli/commands/init.ts -->
<g id="edge5" class="edge">
<title>src/cli/main.ts&#45;&gt;src/cli/commands/init.ts</title>
<path fill="none" stroke="#000000" stroke-width="2" stroke-opacity="0.200000" d="M78.4,-131C86.67,-131 95.93,-131 104.71,-131"/>
<polygon fill="#000000" fill-opacity="0.200000" stroke="#000000" stroke-width="2" stroke-opacity="0.200000" points="104.59,-133.1 110.59,-131 104.59,-128.9 104.59,-133.1"/>
</g>
<!-- src/cli/utils/banner.ts -->
<g id="node8" class="node">
<title>src/cli/utils/banner.ts</title>
<g id="a_node8"><a xlink:href="src/cli/utils/banner.ts" xlink:title="banner.ts">
<path fill="#ddfeff" stroke="black" d="M162.21,-229.88C162.21,-229.88 119.79,-229.88 119.79,-229.88 116.83,-229.88 113.88,-226.92 113.88,-223.96 113.88,-223.96 113.88,-218.04 113.88,-218.04 113.88,-215.08 116.83,-212.12 119.79,-212.12 119.79,-212.12 162.21,-212.12 162.21,-212.12 165.17,-212.12 168.12,-215.08 168.12,-218.04 168.12,-218.04 168.12,-223.96 168.12,-223.96 168.12,-226.92 165.17,-229.88 162.21,-229.88"/>
<text xml:space="preserve" text-anchor="start" x="121.88" y="-217.32" font-family="Helvetica,sans-Serif" font-size="9.00">banner.ts</text>
</a>
</g>
</g>
<!-- src/cli/main.ts&#45;&gt;src/cli/utils/banner.ts -->
<g id="edge6" class="edge">
<title>src/cli/main.ts&#45;&gt;src/cli/utils/banner.ts</title>
<path fill="none" stroke="#000000" stroke-width="2" stroke-opacity="0.200000" d="M54.33,-140.2C58.41,-154.59 68.18,-182.5 86,-199 91.5,-204.09 98.33,-208.08 105.27,-211.17"/>
<polygon fill="#000000" fill-opacity="0.200000" stroke="#000000" stroke-width="2" stroke-opacity="0.200000" points="104.23,-213.02 110.58,-213.29 105.78,-209.12 104.23,-213.02"/>
</g>
<!-- src/cli/utils/mcp&#45;installer.test.ts -->
<g id="node9" class="node">
<title>src/cli/utils/mcp&#45;installer.test.ts</title>
<g id="a_node9"><a xlink:href="src/cli/utils/mcp-installer.test.ts" xlink:title="mcp&#45;installer.test.ts">
<path fill="#ddfeff" stroke="black" d="M182.08,-259.88C182.08,-259.88 99.92,-259.88 99.92,-259.88 96.96,-259.88 94,-256.92 94,-253.96 94,-253.96 94,-248.04 94,-248.04 94,-245.08 96.96,-242.12 99.92,-242.12 99.92,-242.12 182.08,-242.12 182.08,-242.12 185.04,-242.12 188,-245.08 188,-248.04 188,-248.04 188,-253.96 188,-253.96 188,-256.92 185.04,-259.88 182.08,-259.88"/>
<text xml:space="preserve" text-anchor="start" x="102" y="-247.32" font-family="Helvetica,sans-Serif" font-size="9.00">mcp&#45;installer.test.ts</text>
</a>
</g>
</g>
<!-- src/cli/utils/mcp&#45;installer.test.ts&#45;&gt;src/cli/utils/mcp&#45;installer.ts -->
<g id="edge7" class="edge">
<title>src/cli/utils/mcp&#45;installer.test.ts&#45;&gt;src/cli/utils/mcp&#45;installer.ts</title>
<path fill="none" stroke="#000000" stroke-width="2" stroke-opacity="0.200000" d="M175.23,-241.67C185.28,-238.85 196.46,-235.71 207,-232.76"/>
<polygon fill="#000000" fill-opacity="0.200000" stroke="#000000" stroke-width="2" stroke-opacity="0.200000" points="207.54,-234.78 212.75,-231.14 206.41,-230.74 207.54,-234.78"/>
</g>
</g>
</svg>
